<svg version="1.1" id="Layer_1" xmlns="http://www.w3.org/2000/svg" xmlns:xlink="http://www.w3.org/1999/xlink" x="0px" y="0px"
	 width="100%" viewBox="0 0 1650 1275" enable-background="new 0 0 1650 1275" xml:space="preserve">
<path fill="#FFFFFF" opacity="1.000000" stroke="none" 
	d="
M1001.000000,1276.000000 
	C667.333374,1276.000000 334.166779,1276.000000 1.000134,1276.000000 
	C1.000089,851.000122 1.000089,426.000275 1.000045,1.000305 
	C550.999756,1.000203 1100.999512,1.000203 1650.999512,1.000102 
	C1650.999634,425.999664 1650.999634,850.999329 1650.999756,1275.999512 
	C1434.500000,1276.000000 1218.000000,1276.000000 1001.000000,1276.000000 
M547.909668,824.247498 
	C544.973938,822.154541 542.038147,820.061584 538.909363,817.316467 
	C534.785278,813.219177 530.517517,809.255371 526.563843,804.999695 
	C514.412903,791.920715 507.554230,776.502136 508.301758,758.529968 
	C509.314819,734.174316 519.272400,714.379395 540.724670,700.524353 
	C543.598816,698.584961 546.472961,696.645569 549.347107,694.706177 
	C549.165100,694.069763 548.983032,693.433289 548.801025,692.796814 
	C545.860840,692.622314 542.920593,692.447815 539.053955,692.154419 
	C532.722534,692.148499 526.390259,692.072144 520.059814,692.148987 
	C494.504913,692.459229 471.636688,684.429504 451.023560,669.691467 
	C444.890289,665.306213 439.199036,660.302795 432.521973,654.955261 
	C432.521973,677.929138 432.521973,700.123108 432.521973,722.317078 
	C432.157288,722.414062 431.792603,722.510986 431.427917,722.607971 
	C365.912537,629.501709 300.397156,536.395386 234.881760,443.289062 
	C234.510132,443.461029 234.138489,443.632965 233.766861,443.804932 
	C233.766861,445.766632 233.766876,447.728333 233.766861,449.690033 
	C233.766083,517.342712 233.810898,584.995544 233.667587,652.647949 
	C233.657425,657.446228 235.005234,661.227356 237.723969,665.043091 
	C271.826752,712.906128 305.837280,760.834961 339.855194,808.758423 
	C376.474487,860.346558 413.096100,911.933105 449.628876,963.582520 
	C451.465942,966.179749 453.345367,967.309021 456.564575,967.277100 
	C472.059875,967.123535 487.557526,967.217163 503.054291,967.193726 
	C504.643982,967.191345 506.233398,966.993713 507.949585,966.878113 
	C507.949585,962.510132 507.949585,958.703125 508.226257,954.192871 
	C508.169556,951.409668 508.112885,948.626526 508.177582,944.931763 
	C508.177582,931.689880 508.177582,918.448059 508.177582,904.439514 
	C519.074280,904.439514 529.191101,904.439514 540.131958,904.640198 
	C542.681641,904.620178 545.231262,904.600098 548.705078,904.699829 
	C550.530212,904.731995 552.366028,904.650085 554.178101,904.820984 
	C557.573425,905.141174 558.875732,903.850037 558.856262,900.308594 
	C558.735718,878.397644 558.826660,856.485596 558.721069,834.574585 
	C558.714111,833.120789 558.075989,831.138184 557.020142,830.324951 
	C554.294861,828.225708 551.170715,826.644165 547.909668,824.247498 
M547.966248,628.063049 
	C551.402954,628.063049 554.839600,628.063049 558.496948,628.063049 
	C558.496948,596.784241 558.496948,566.212158 558.496948,535.225708 
	C554.433472,535.225708 550.661255,535.225708 546.059998,535.071472 
	C544.118103,535.152649 542.176147,535.233765 539.287659,535.109497 
	C532.791016,535.080994 526.294067,534.995239 519.797852,535.034119 
	C495.325897,535.180603 475.671692,553.057007 473.365204,578.407898 
	C471.503479,598.870605 485.397186,622.126587 510.174652,626.801758 
	C519.842773,628.626038 530.047363,627.607422 540.874878,628.068481 
	C542.935303,628.023499 544.995789,627.978516 547.966248,628.063049 
M547.015686,470.954132 
	C549.181274,470.958374 551.371826,470.754364 553.507080,471.010895 
	C557.744202,471.519897 558.838867,469.718658 558.834229,465.640472 
	C558.737244,380.845276 558.737915,296.049866 558.844604,211.254669 
	C558.849854,207.072754 557.547546,205.904648 553.429504,205.919388 
	C514.780640,206.057846 476.130890,206.064865 437.482117,205.914169 
	C433.217468,205.897552 432.178162,207.325882 432.181915,211.360718 
	C432.272125,308.483765 432.248077,405.606964 432.272308,502.730103 
	C432.272705,504.384338 432.612396,506.038483 432.875153,508.434937 
	C436.547302,505.210938 439.353638,502.640533 442.271057,500.203064 
	C460.700836,484.805634 481.498993,474.426270 505.585266,472.021210 
	C517.306763,470.850830 529.175476,471.155304 541.817871,470.979736 
	C543.250854,470.929382 544.683777,470.879028 547.015686,470.954132 
M358.252441,578.246521 
	C372.242523,597.970154 386.232605,617.693726 401.009949,638.527283 
	C401.009949,636.314087 401.009918,635.531616 401.009918,634.749146 
	C401.010101,564.587891 401.029480,494.426666 400.918762,424.265625 
	C400.915405,422.145844 400.003510,419.709503 398.760742,417.955231 
	C327.451508,317.296326 256.050934,216.702118 184.743103,116.042213 
	C182.885056,113.419334 181.012589,112.451332 177.814392,112.463478 
	C145.484039,112.586380 113.153015,112.535408 80.822182,112.545921 
	C79.350403,112.546394 77.878654,112.667625 76.321198,112.736397 
	C76.321198,309.201996 76.321198,505.409943 76.321198,701.637451 
	C117.882935,701.637451 159.127670,701.637451 200.963287,701.637451 
	C200.963287,586.715637 200.963287,472.074188 200.963287,356.134003 
	C253.809616,430.731659 305.844482,504.183868 358.252441,578.246521 
M776.520813,690.187073 
	C766.168823,691.452332 755.823608,693.742065 745.463684,693.810852 
	C691.805359,694.167114 638.142944,693.861328 584.482544,694.002380 
	C569.161011,694.042664 555.061035,698.564453 542.159424,707.016357 
	C512.933105,726.162537 505.397614,770.543213 528.042664,797.076538 
	C541.057251,812.325867 556.793030,823.819275 574.321838,832.936157 
	C593.629578,842.978394 613.502075,851.941101 632.740723,862.107910 
	C646.957458,869.621033 660.664551,878.129700 674.342834,886.607605 
	C677.598999,888.625732 680.376709,891.958618 682.417175,895.275574 
	C686.015442,901.124878 683.754150,907.065857 677.173523,909.146423 
	C673.289246,910.374512 669.021606,910.862671 664.924438,910.872314 
	C616.761536,910.985657 568.598145,910.945312 520.434937,910.945496 
	C518.659058,910.945496 516.883179,910.945435 515.044189,910.945435 
	C515.044189,928.261108 515.044189,945.017395 515.044189,962.237610 
	C516.216797,962.237610 517.167175,962.237671 518.117554,962.237610 
	C568.113953,962.233337 618.110718,962.315735 668.106445,962.124695 
	C675.047424,962.098145 682.158752,961.453735 688.889893,959.839172 
	C712.824707,954.097900 730.442261,940.641174 737.988281,916.406433 
	C745.595764,891.974487 740.143921,870.435059 722.356079,852.023926 
	C709.222656,838.430115 693.450562,828.547058 676.763916,820.085999 
	C657.942932,810.542847 638.717163,801.782471 620.055847,791.945007 
	C606.707214,784.908142 593.900940,776.814331 581.076294,768.832886 
	C578.087402,766.972778 575.508301,763.966003 573.613708,760.940186 
	C569.953491,755.094788 572.077087,749.149475 578.648010,747.007446 
	C582.520203,745.745117 586.790100,745.207214 590.883545,745.195618 
	C634.713379,745.071472 678.543701,745.117615 722.373901,745.117249 
	C723.207153,745.117249 724.040894,745.138184 724.873657,745.119507 
	C740.957520,744.758301 757.132263,745.328430 773.100708,743.776794 
	C790.712341,742.065613 806.991699,735.490906 821.133667,724.514526 
	C842.027527,708.297729 850.936401,686.313049 850.982422,660.416504 
	C851.088562,600.754272 851.019165,541.091736 851.010986,481.429321 
	C851.010803,480.145721 850.891174,478.862122 850.820190,477.435242 
	C831.740723,477.435242 812.994446,477.435242 793.712158,477.435242 
	C793.712158,522.416382 793.712158,567.153503 793.712158,611.674194 
	C772.213806,611.674194 751.253845,611.684753 730.293945,611.645569 
	C729.149292,611.643433 728.000977,611.247864 726.861877,611.001038 
	C720.158630,609.548523 715.791199,605.680603 714.873474,598.713928 
	C714.288574,594.274353 713.928101,589.771057 713.918030,585.295288 
	C713.841187,551.131226 713.875366,516.966919 713.875061,482.802704 
	C713.875000,481.042328 713.875000,479.281921 713.875000,477.476807 
	C694.934448,477.476807 676.687439,477.476807 658.534729,477.476807 
	C658.325317,478.065277 658.124084,478.366760 658.124146,478.668182 
	C658.133667,516.663513 657.606445,554.669983 658.374329,592.650208 
	C658.891052,618.209595 669.412537,638.993042 692.543396,652.044800 
	C703.116394,658.010620 714.431213,662.215271 726.483398,662.887268 
	C744.426758,663.887634 762.430786,663.809265 780.409729,664.153748 
	C784.539429,664.232910 788.671936,664.165405 792.778503,664.165405 
	C793.226746,676.654907 787.969971,685.224792 776.520813,690.187073 
M836.503235,805.060547 
	C849.664795,805.065796 862.829590,804.883179 875.987122,805.116089 
	C902.162109,805.579407 925.308899,827.047852 927.011414,852.188782 
	C929.001953,881.583618 910.608643,906.333740 882.913696,909.950928 
	C870.940735,911.514771 858.655457,910.691345 846.511780,910.940308 
	C844.755676,910.976379 842.998169,910.945374 841.274414,910.945374 
	C841.274414,928.356506 841.274414,945.114441 841.274414,962.240601 
	C851.985291,962.240601 862.447083,962.144897 872.906555,962.258667 
	C903.595520,962.592407 929.938965,951.551819 951.968750,930.746338 
	C976.868042,907.230835 988.710632,878.143616 983.629333,843.828979 
	C975.738342,790.538940 925.472595,755.554138 881.940491,754.197144 
	C843.324951,752.993469 804.645630,753.831848 765.994507,753.784241 
	C765.206299,753.783264 764.417908,753.971252 763.547241,754.081543 
	C763.547241,843.514465 763.547241,932.702576 763.547241,1021.740662 
	C782.772888,1021.740662 801.655823,1021.740662 820.845703,1021.740662 
	C820.845703,949.409668 820.845703,877.490234 820.845703,805.060730 
	C825.933105,805.060730 830.718872,805.060730 836.503235,805.060547 
M554.500000,477.185944 
	C543.837524,477.186005 533.174377,477.265656 522.512756,477.171082 
	C491.737366,476.898102 464.990204,487.468170 442.749298,508.369995 
	C415.875854,533.625427 403.692291,564.759460 411.892242,601.384094 
	C421.067047,642.362854 448.456116,667.584473 487.255066,680.678589 
	C497.616760,684.175476 509.067902,684.939941 520.108826,685.787781 
	C530.973999,686.622070 541.953308,685.969788 552.914917,685.969788 
	C552.914917,668.549438 552.914917,651.765198 552.914917,634.478271 
	C546.777283,634.478271 540.809387,634.604797 534.848999,634.447937 
	C526.374451,634.224792 517.687744,634.886230 509.473785,633.250671 
	C482.425293,627.864807 464.359772,602.799438 467.136597,575.752991 
	C469.876068,549.070190 492.699554,528.933228 520.440979,528.812988 
	C536.601318,528.742920 552.762268,528.792847 568.922913,528.807983 
	C570.377136,528.809326 571.831299,528.951782 573.679321,529.049561 
	C573.679321,581.488464 573.679321,633.580444 573.679321,685.613831 
	C592.989624,685.613831 611.882996,685.613831 630.670288,685.613831 
	C630.670288,616.027100 630.670288,546.797546 630.670288,477.185883 
	C605.413696,477.185883 580.456848,477.185883 554.500000,477.185944 
M1036.786499,677.465637 
	C1036.786499,680.222534 1036.786499,682.979370 1036.786499,685.699707 
	C1056.221191,685.699707 1074.969116,685.699707 1093.822998,685.699707 
	C1093.822998,616.177917 1093.822998,546.928040 1093.822998,477.185822 
	C1091.821045,477.185822 1090.035522,477.185822 1088.250000,477.185822 
	C1053.921021,477.185852 1019.591553,477.294464 985.263062,477.151642 
	C957.685181,477.036896 933.090271,485.625671 911.992859,503.092163 
	C881.445496,528.382202 866.354370,560.752991 874.896118,600.362061 
	C884.501648,644.903992 914.807495,670.670593 957.529297,682.900879 
	C972.636475,687.225769 988.277466,685.864929 1003.747620,685.966919 
	C1007.850708,685.993958 1011.954041,685.970947 1015.994995,685.970947 
	C1015.994995,668.521362 1015.994995,651.734558 1015.994995,634.474915 
	C1012.128418,634.474915 1008.491699,634.540894 1004.857971,634.462341 
	C994.372131,634.235535 983.677124,635.187927 973.443237,633.447998 
	C946.597839,628.884033 927.509399,603.076111 930.201477,576.587524 
	C932.977600,549.272095 955.462097,528.977539 983.271729,528.812805 
	C999.602417,528.716125 1015.934204,528.784973 1032.265503,528.807373 
	C1033.687622,528.809326 1035.109497,529.020874 1036.786743,529.155579 
	C1036.786743,578.531372 1036.786743,627.501648 1036.786499,677.465637 
M1148.065796,754.345093 
	C1120.880371,745.957642 1093.921875,746.393982 1067.430176,757.011230 
	C1013.999939,778.424744 985.809998,834.678223 1001.742310,887.686646 
	C1022.478943,956.679199 1105.200073,989.013306 1168.396484,952.013245 
	C1209.417969,927.996155 1229.738770,891.447693 1223.532959,843.816284 
	C1217.721802,799.213013 1190.575073,770.253479 1148.065796,754.345093 
M1509.572876,910.941467 
	C1504.423218,910.595276 1499.247070,910.471497 1494.128784,909.861572 
	C1478.351685,907.981262 1469.731323,900.382812 1467.329224,886.168457 
	C1466.694702,882.414307 1466.631104,878.533142 1466.619385,874.709290 
	C1466.552734,853.045227 1466.576538,831.380798 1466.589722,809.716492 
	C1466.590576,808.279358 1466.758301,806.842346 1466.877563,804.939941 
	C1502.422119,804.939941 1537.653809,804.939941 1572.874023,804.939941 
	C1572.874023,787.687012 1572.874023,770.927368 1572.874023,753.637207 
	C1537.410034,753.637207 1502.186646,753.637207 1466.526245,753.637207 
	C1466.526245,733.501160 1466.526245,713.892212 1466.526245,694.164795 
	C1447.193115,694.164795 1428.304932,694.164795 1409.376709,694.164795 
	C1409.250244,694.942993 1409.105957,695.416443 1409.105957,695.889893 
	C1409.102661,756.883118 1408.891724,817.877502 1409.227539,878.868896 
	C1409.355957,902.191406 1417.488037,922.577881 1435.470825,938.195435 
	C1454.025024,954.309326 1476.380371,960.744629 1500.319092,961.875671 
	C1517.281860,962.677124 1534.306641,962.175537 1551.303711,962.237305 
	C1558.423828,962.263184 1565.544067,962.241577 1572.801025,962.241577 
	C1572.801025,944.932251 1572.801025,928.059509 1572.801025,910.943481 
	C1551.841187,910.943481 1531.198120,910.943481 1509.572876,910.941467 
M1264.500122,962.241699 
	C1276.772339,962.241699 1289.044556,962.241699 1301.771973,962.241699 
	C1301.771973,959.729004 1301.769531,957.769531 1301.772461,955.809998 
	C1301.830566,915.340393 1301.675415,874.868835 1302.054077,834.402222 
	C1302.203735,818.398010 1309.529907,810.351135 1325.056274,807.060486 
	C1327.328125,806.578979 1329.640137,806.033569 1331.942627,805.988831 
	C1351.078979,805.616882 1370.217407,805.353638 1389.355225,805.064575 
	C1391.100464,805.038208 1392.846558,805.061035 1394.505615,805.061035 
	C1394.505615,787.566833 1394.505615,770.824402 1394.505615,753.768066 
	C1386.380981,753.768066 1378.560791,753.548340 1370.756836,753.812866 
	C1353.314209,754.404053 1335.739868,754.111877 1318.476929,756.255188 
	C1296.826294,758.943420 1277.669678,768.042542 1263.030884,784.967346 
	C1249.398438,800.728638 1244.268066,819.503113 1244.227905,839.913025 
	C1244.151123,879.051147 1244.199341,918.189636 1244.207275,957.327942 
	C1244.207520,958.789490 1244.330811,960.251038 1244.420532,962.241699 
	C1250.940308,962.241699 1257.220337,962.241699 1264.500122,962.241699 
M166.659729,1125.938965 
	C169.208176,1135.726440 171.756607,1145.513916 174.300644,1155.284424 
	C178.651230,1155.284424 182.715652,1155.284424 186.702362,1155.284424 
	C186.702362,1129.683716 186.702362,1104.444214 186.702362,1079.282471 
	C183.006866,1079.282471 179.612076,1079.282471 175.921066,1079.282471 
	C175.921066,1093.801147 175.921066,1107.991699 175.921066,1122.182373 
	C175.693726,1122.214966 175.466400,1122.247559 175.239059,1122.280151 
	C171.482468,1107.897705 167.725861,1093.515137 163.998978,1079.246338 
	C158.759644,1079.246338 153.849991,1079.246338 148.932404,1079.246338 
	C148.932404,1104.784790 148.932404,1130.027466 148.932404,1155.368408 
	C152.484024,1155.368408 155.734680,1155.368408 159.508392,1155.368408 
	C159.508392,1137.880249 159.508392,1120.656494 159.508392,1103.432617 
	C159.877869,1103.381348 160.247360,1103.330078 160.616837,1103.278809 
	C162.530396,1110.576538 164.443970,1117.874146 166.659729,1125.938965 
M339.137634,1084.454224 
	C333.488831,1077.278809 325.842285,1076.893677 317.873413,1078.623535 
	C310.958801,1080.124512 306.348541,1084.977783 306.126526,1091.814453 
	C305.576752,1108.744629 305.580139,1125.716309 306.119049,1142.647217 
	C306.356659,1150.112305 311.798981,1154.971191 319.299164,1156.109375 
	C322.518005,1156.597900 325.888123,1156.000244 329.166687,1156.226685 
	C330.511414,1156.319702 332.357727,1156.918213 333.011475,1157.917725 
	C336.032959,1162.536377 340.322418,1163.067505 345.457703,1162.543823 
	C345.457703,1158.968872 345.457703,1155.583252 345.457703,1152.264160 
	C343.392914,1151.753784 341.545319,1151.296997 340.226318,1150.970825 
	C341.127747,1145.545654 342.496979,1140.719971 342.625946,1135.861328 
	C342.956848,1123.393799 343.009674,1110.902588 342.592712,1098.440308 
	C342.442291,1093.944214 340.635590,1089.503540 339.137634,1084.454224 
M896.637390,1078.952393 
	C893.310547,1078.459595 893.862732,1080.805664 893.862732,1082.745483 
	C893.862854,1106.044434 893.859009,1129.343384 893.880737,1152.642334 
	C893.881592,1153.563232 894.127319,1154.484009 894.240173,1155.273438 
	C898.368652,1155.273438 902.093079,1155.273438 906.156372,1155.273438 
	C906.156372,1144.307007 906.156372,1133.699341 906.156372,1123.131348 
	C915.946350,1122.302002 917.885742,1124.000977 917.943481,1133.168945 
	C917.967529,1136.996460 917.946045,1140.824341 917.948608,1144.651978 
	C917.956543,1156.453003 917.957397,1156.455444 929.822021,1155.564941 
	C930.130859,1155.541870 930.424744,1155.318848 930.031250,1155.488525 
	C930.031250,1146.733887 930.159668,1138.285767 929.985596,1129.843872 
	C929.871704,1124.318481 928.440674,1119.271240 924.085327,1117.216431 
	C926.068848,1113.029297 928.523376,1109.140381 929.722961,1104.896606 
	C930.640015,1101.652344 930.122192,1097.952759 929.975708,1094.467041 
	C929.571289,1084.842651 924.258789,1079.459106 914.590698,1079.045044 
	C908.942200,1078.802979 903.276245,1078.969360 896.637390,1078.952393 
M817.253296,1078.273926 
	C808.655640,1081.024658 804.293396,1085.826294 804.121094,1094.338013 
	C803.811157,1109.652832 803.718262,1124.987549 804.151489,1140.296509 
	C804.447205,1150.744873 812.030640,1156.939941 822.879333,1156.738037 
	C833.562744,1156.539185 840.664551,1150.365723 840.902710,1140.075928 
	C841.253357,1124.928955 841.230530,1109.763306 840.918640,1094.614746 
	C840.706726,1084.326294 833.913696,1078.132812 823.584717,1077.928711 
	C821.757202,1077.892578 819.925964,1078.046997 817.253296,1078.273926 
M58.980129,1091.510376 
	C58.983540,1107.164551 58.898872,1122.819336 59.022648,1138.472534 
	C59.099674,1148.213379 63.850098,1154.450928 72.013084,1156.100464 
	C86.308632,1158.989136 95.178452,1152.109863 95.359245,1137.470337 
	C95.591621,1118.655029 95.422531,1099.834595 95.402985,1081.016357 
	C95.402344,1080.401245 95.146217,1079.786377 95.022583,1079.231567 
	C91.219086,1079.231567 87.622391,1079.231567 83.742111,1079.231567 
	C83.742111,1097.963989 83.753731,1116.421631 83.725304,1134.879150 
	C83.722244,1136.866333 83.603935,1138.869385 83.332634,1140.836670 
	C82.866371,1144.217773 80.546448,1145.705566 77.397491,1145.714233 
	C74.204376,1145.723022 72.012604,1144.053467 71.455544,1140.781982 
	C71.178551,1139.155273 71.149956,1137.472656 71.147964,1135.815063 
	C71.127213,1118.495605 71.134674,1101.176147 71.134323,1083.856689 
	C71.134293,1082.277344 71.134315,1080.698120 71.134315,1079.270142 
	C66.675919,1079.270142 62.931511,1079.270142 58.979942,1079.270142 
	C58.979942,1083.226929 58.979942,1086.871460 58.980129,1091.510376 
M395.269501,1142.763672 
	C396.582855,1148.609619 399.396118,1153.212891 405.349884,1155.408081 
	C419.300385,1160.551758 430.934570,1152.940308 431.212433,1138.142090 
	C431.459473,1124.986328 431.278870,1111.822632 431.284729,1098.662354 
	C431.287598,1092.220581 431.285217,1085.778931 431.285217,1079.153564 
	C427.196991,1079.153564 423.603790,1079.153564 419.592285,1079.153564 
	C419.592285,1081.154663 419.592285,1082.960449 419.592316,1084.766113 
	C419.592468,1101.591309 419.611847,1118.416504 419.569183,1135.241699 
	C419.563721,1137.392822 419.831970,1139.867554 418.888947,1141.603271 
	C417.935150,1143.358521 415.653900,1145.418945 413.917297,1145.452637 
	C411.917755,1145.491699 409.376373,1143.863647 408.016327,1142.190430 
	C406.952454,1140.881836 407.111237,1138.400635 407.104553,1136.439209 
	C407.044952,1118.947876 407.069305,1101.456177 407.068909,1083.964600 
	C407.068878,1082.369629 407.068909,1080.774658 407.068909,1079.237183 
	C402.697968,1079.237183 398.950348,1079.237183 395.124634,1079.237183 
	C395.124634,1100.311279 395.124634,1121.104370 395.269501,1142.763672 
M729.804688,1141.491943 
	C729.804688,1135.875488 729.804688,1130.259033 729.804688,1124.283691 
	C732.533386,1124.283691 734.687561,1124.368774 736.833130,1124.269165 
	C746.910767,1123.801270 752.272827,1119.268555 753.366394,1109.226807 
	C753.971802,1103.668457 753.755554,1097.908813 753.055359,1092.347412 
	C752.102173,1084.777832 747.537048,1080.021729 740.077881,1079.341797 
	C732.704163,1078.669800 725.221313,1079.194946 717.614746,1079.194946 
	C717.614746,1104.668213 717.614746,1129.884399 717.614746,1155.291260 
	C721.763550,1155.291260 725.633301,1155.291260 729.804688,1155.291260 
	C729.804688,1150.775024 729.804688,1146.630615 729.804688,1141.491943 
M661.947449,1122.662354 
	C657.177795,1117.796875 652.414612,1112.924927 647.636414,1108.067871 
	C643.718018,1104.084717 641.178223,1099.531616 642.181458,1093.740723 
	C642.731079,1090.567993 644.714722,1088.835693 648.120972,1088.881226 
	C651.505737,1088.926392 653.431458,1090.621704 653.912842,1093.861450 
	C654.199402,1095.789673 654.142883,1097.768921 654.245483,1099.823242 
	C658.222229,1099.823242 661.924255,1099.823242 666.060303,1099.823242 
	C665.746338,1096.784058 665.646362,1094.134399 665.174500,1091.552612 
	C663.543518,1082.630005 658.050293,1078.095703 648.857300,1077.903687 
	C638.581787,1077.689087 632.066772,1082.061890 630.314148,1090.917480 
	C628.606689,1099.544556 630.243652,1107.536743 636.529419,1114.072021 
	C640.567932,1118.270752 644.917175,1122.169922 648.973206,1126.352783 
	C652.782288,1130.281006 654.406738,1135.039551 653.496216,1140.530396 
	C652.911743,1144.055176 650.654541,1145.762939 647.231079,1145.706543 
	C643.750183,1145.649292 641.620300,1143.648315 641.220520,1140.215332 
	C640.958191,1137.962524 641.170898,1135.654419 641.170898,1133.221680 
	C637.053589,1133.221680 633.475891,1133.221680 629.626892,1133.221680 
	C629.626892,1135.578247 629.468262,1137.722900 629.653320,1139.837524 
	C630.655945,1151.292847 637.210938,1157.203369 648.284607,1156.745605 
	C659.299927,1156.290405 666.024841,1149.821167 665.797791,1138.591431 
	C665.694336,1133.474487 663.530884,1128.399170 661.947449,1122.662354 
M1234.276367,1124.252075 
	C1238.833862,1128.597656 1241.708618,1133.654785 1240.797241,1140.209351 
	C1240.320068,1143.640747 1238.261841,1145.631348 1234.774170,1145.707031 
	C1231.321289,1145.781860 1229.039307,1144.016968 1228.502075,1140.542358 
	C1228.131592,1138.146362 1228.126343,1135.693970 1227.960205,1133.299316 
	C1224.075806,1133.299316 1220.498657,1133.299316 1217.008423,1133.299316 
	C1217.008423,1136.438599 1216.738892,1139.292480 1217.058350,1142.078735 
	C1218.069580,1150.898926 1223.776733,1155.959473 1233.217529,1156.702271 
	C1242.697510,1157.448364 1249.904297,1153.064087 1252.109619,1144.732178 
	C1254.827881,1134.461914 1252.667847,1125.264038 1245.028198,1117.642090 
	C1241.258423,1113.881104 1237.197144,1110.404663 1233.533325,1106.547363 
	C1230.192383,1103.029907 1228.413330,1098.747314 1229.372803,1093.763916 
	C1230.036499,1090.316650 1232.198364,1088.656860 1235.793823,1088.903320 
	C1239.225342,1089.138794 1240.842041,1091.072266 1241.123047,1094.334106 
	C1241.277100,1096.121948 1241.369141,1097.915283 1241.497437,1099.829224 
	C1245.455933,1099.829224 1249.148682,1099.829224 1253.195557,1099.829224 
	C1252.923950,1096.801270 1252.928101,1094.119751 1252.409424,1091.543457 
	C1250.379028,1081.460815 1244.001343,1077.164551 1232.557617,1077.964478 
	C1223.661743,1078.586304 1217.822754,1084.600830 1217.008423,1093.856201 
	C1216.329468,1101.572998 1218.361572,1108.405396 1223.698486,1114.052368 
	C1226.896606,1117.436279 1230.393799,1120.537354 1234.276367,1124.252075 
M496.859070,1097.541504 
	C496.859070,1095.109375 496.859070,1092.677246 496.859070,1089.798828 
	C504.193054,1089.798828 510.931793,1089.798828 517.615784,1089.798828 
	C517.615784,1085.927734 517.615784,1082.537109 517.615784,1079.128052 
	C506.496460,1079.128052 495.720703,1079.128052 484.819824,1079.128052 
	C484.819824,1104.677856 484.819824,1130.031738 484.819824,1155.406250 
	C495.971466,1155.406250 506.734161,1155.406250 517.674683,1155.406250 
	C517.674683,1151.752808 517.674683,1148.370239 517.674683,1144.489502 
	C510.669464,1144.489502 503.935913,1144.489502 497.190125,1144.489502 
	C497.190125,1136.431763 497.190125,1128.880859 497.190125,1120.901367 
	C502.757690,1120.901367 508.003693,1120.901367 513.250854,1120.901367 
	C513.250854,1117.058350 513.250854,1113.663696 513.250854,1109.855957 
	C507.635315,1109.855957 502.376221,1109.855957 496.859039,1109.855957 
	C496.859039,1105.800171 496.859039,1102.161133 496.859070,1097.541504 
M1561.005737,1098.500366 
	C1561.005737,1117.416748 1561.005737,1136.333130 1561.005737,1155.408813 
	C1572.344604,1155.408813 1583.089600,1155.408813 1594.087158,1155.408813 
	C1594.087158,1151.784058 1594.087158,1148.396973 1594.087158,1144.483398 
	C1587.074341,1144.483398 1580.340332,1144.483398 1573.551270,1144.483398 
	C1573.551270,1136.393799 1573.551270,1128.836792 1573.551270,1120.928955 
	C1579.162354,1120.928955 1584.431641,1120.928955 1589.768799,1120.928955 
	C1589.768799,1117.171753 1589.768799,1113.779175 1589.768799,1109.819092 
	C1584.121704,1109.819092 1578.745972,1109.819092 1573.435547,1109.819092 
	C1573.435547,1102.971436 1573.435547,1096.702148 1573.435547,1090.007568 
	C1580.407593,1090.007568 1587.159180,1090.007568 1594.140869,1090.007568 
	C1594.140869,1086.144287 1594.140869,1082.711914 1594.140869,1079.266846 
	C1583.026978,1079.266846 1572.135010,1079.266846 1561.005737,1079.266846 
	C1561.005737,1085.553101 1561.005737,1091.526855 1561.005737,1098.500366 
M1399.654053,1118.059082 
	C1400.153809,1121.478394 1401.006348,1124.889648 1401.084839,1128.318604 
	C1401.288940,1137.250854 1401.153320,1146.190796 1401.153320,1155.258545 
	C1405.537598,1155.258545 1409.392578,1155.258545 1413.554199,1155.258545 
	C1413.554199,1153.209839 1413.684326,1151.551880 1413.534424,1149.919678 
	C1411.828003,1131.330811 1415.202881,1113.620728 1422.332764,1096.459473 
	C1424.636597,1090.914062 1426.208618,1085.064819 1428.154053,1079.238770 
	C1423.755005,1079.238770 1420.003540,1079.238770 1416.311279,1079.238770 
	C1413.624268,1088.169678 1411.023804,1096.812622 1408.423462,1105.455688 
	C1408.094727,1105.443237 1407.766113,1105.430908 1407.437378,1105.418579 
	C1404.803101,1096.666992 1402.168701,1087.915527 1399.551270,1079.219971 
	C1395.173096,1079.219971 1391.110107,1079.219971 1386.591919,1079.219971 
	C1390.913086,1092.177368 1395.104980,1104.746826 1399.654053,1118.059082 
M1090.938721,1091.303467 
	C1089.508789,1095.971558 1088.078857,1100.639771 1086.648926,1105.307861 
	C1086.319336,1105.322266 1085.989746,1105.336670 1085.660156,1105.351074 
	C1083.002686,1096.582764 1080.345215,1087.814453 1077.749023,1079.248047 
	C1073.269531,1079.248047 1069.212769,1079.248047 1064.818359,1079.248047 
	C1069.033081,1091.900635 1072.910156,1104.247192 1077.266235,1116.422485 
	C1081.834106,1129.189575 1077.736816,1142.485474 1079.927979,1155.341797 
	C1083.923340,1155.341797 1087.678711,1155.341797 1091.840210,1155.341797 
	C1091.840210,1153.059448 1091.987915,1151.081787 1091.817261,1149.131836 
	C1090.235229,1131.055542 1093.337646,1113.793091 1100.319824,1097.086304 
	C1102.712891,1091.360229 1104.336914,1085.312744 1106.367432,1079.247070 
	C1101.964355,1079.247070 1098.199341,1079.247070 1094.518188,1079.247070 
	C1093.313354,1083.203979 1092.200928,1086.858032 1090.938721,1091.303467 
M1006.622925,1089.982178 
	C1010.077148,1089.982178 1013.531433,1089.982178 1017.205444,1089.982178 
	C1017.205444,1086.114136 1017.205444,1082.690063 1017.205444,1079.100342 
	C1004.678711,1079.100342 992.398621,1079.100342 979.889282,1079.100342 
	C979.889282,1082.659424 979.889282,1086.097168 979.889282,1090.132812 
	C984.102966,1090.132812 988.139221,1090.132812 992.632874,1090.132812 
	C992.632874,1112.279053 992.632874,1133.830444 992.632874,1155.340332 
	C996.867920,1155.340332 1000.618408,1155.340332 1004.778625,1155.340332 
	C1004.778625,1153.214966 1004.778687,1151.418335 1004.778687,1149.621582 
	C1004.778687,1131.480957 1004.755066,1113.340332 1004.817017,1095.199951 
	C1004.822876,1093.485718 1005.365906,1091.773315 1006.622925,1089.982178 
M1314.107788,1100.519653 
	C1314.107788,1118.757080 1314.107788,1136.994507 1314.107788,1155.356201 
	C1318.491089,1155.356201 1322.225708,1155.356201 1326.406494,1155.356201 
	C1326.406494,1133.509155 1326.406494,1111.951538 1326.406494,1089.812256 
	C1330.897339,1089.812256 1334.951538,1089.812256 1338.953613,1089.812256 
	C1338.953613,1085.944458 1338.953613,1082.665039 1338.953613,1079.279785 
	C1326.384521,1079.279785 1314.024780,1079.279785 1301.734863,1079.279785 
	C1301.734863,1083.000977 1301.734863,1086.376953 1301.734863,1090.169434 
	C1306.052734,1090.169434 1309.974609,1090.169434 1314.107544,1090.169434 
	C1314.107544,1093.572876 1314.107544,1096.550781 1314.107788,1100.519653 
M1478.184570,1127.500000 
	C1478.184570,1136.756470 1478.184570,1146.012939 1478.184570,1155.306396 
	C1489.434814,1155.306396 1499.992188,1155.306396 1510.594238,1155.306396 
	C1510.594238,1151.648926 1510.594238,1148.373657 1510.594238,1144.572144 
	C1503.974731,1144.572144 1497.561646,1144.572144 1490.658813,1144.572144 
	C1490.658813,1122.477539 1490.658813,1100.907104 1490.658813,1079.270020 
	C1486.255737,1079.270020 1482.372681,1079.270020 1478.184570,1079.270020 
	C1478.184570,1095.239990 1478.184570,1110.869995 1478.184570,1127.500000 
M240.556076,1086.619507 
	C240.556076,1109.527100 240.556076,1132.434814 240.556076,1155.320557 
	C245.017853,1155.320557 248.772705,1155.320557 252.619751,1155.320557 
	C252.619751,1129.777832 252.619751,1104.559082 252.619751,1079.144775 
	C248.584671,1079.144775 244.809753,1079.144775 240.557632,1079.144775 
	C240.557632,1081.392822 240.557632,1083.525146 240.556076,1086.619507 
z"/>
<path fill="#022C5D" opacity="1.000000" stroke="none" 
	d="
M358.065887,577.941284 
	C305.844482,504.183868 253.809616,430.731659 200.963287,356.134003 
	C200.963287,472.074188 200.963287,586.715637 200.963287,701.637451 
	C159.127670,701.637451 117.882935,701.637451 76.321198,701.637451 
	C76.321198,505.409943 76.321198,309.201996 76.321198,112.736397 
	C77.878654,112.667625 79.350403,112.546394 80.822182,112.545921 
	C113.153015,112.535408 145.484039,112.586380 177.814392,112.463478 
	C181.012589,112.451332 182.885056,113.419334 184.743103,116.042213 
	C256.050934,216.702118 327.451508,317.296326 398.760742,417.955231 
	C400.003510,419.709503 400.915405,422.145844 400.918762,424.265625 
	C401.029480,494.426666 401.010101,564.587891 401.009918,634.749146 
	C401.009918,635.531616 401.009949,636.314087 401.009949,638.527283 
	C386.232605,617.693726 372.242523,597.970154 358.065887,577.941284 
M299.296692,315.237793 
	C326.260803,352.652496 353.264709,390.038727 380.094391,427.549591 
	C381.779541,429.905609 382.891876,433.221405 382.942932,436.114105 
	C383.766449,482.770203 384.373169,529.430115 385.038116,576.088989 
	C385.057434,577.446350 385.175903,578.802246 385.248169,580.158813 
	C385.800842,579.498657 385.911469,578.850952 385.920624,578.201721 
	C386.602295,529.876404 387.309143,481.551361 387.845306,433.224426 
	C387.870300,430.968719 386.831635,428.370209 385.507294,426.477966 
	C317.161041,328.823608 248.715027,231.239029 180.382401,133.575150 
	C178.409637,130.755569 176.395660,129.822159 173.080872,129.835983 
	C145.748978,129.950043 118.416359,129.891510 91.083954,129.885345 
	C89.478333,129.884995 87.872711,129.885300 85.955521,129.885300 
	C85.838188,306.490417 87.007133,482.535461 89.668343,658.567871 
	C90.300102,658.566833 90.931870,658.565796 91.563637,658.564697 
	C92.811684,485.344452 94.059731,312.124176 95.309486,138.666290 
	C119.150780,138.666290 142.805893,138.797409 166.457245,138.556976 
	C171.255844,138.508209 174.177719,139.817429 177.060165,143.875748 
	C217.551407,200.885040 258.257843,257.741516 299.296692,315.237793 
z"/>
<path fill="#022C5D" opacity="1.000000" stroke="none" 
	d="
M776.894409,690.078491 
	C787.969971,685.224792 793.226746,676.654907 792.778503,664.165405 
	C788.671936,664.165405 784.539429,664.232910 780.409729,664.153748 
	C762.430786,663.809265 744.426758,663.887634 726.483398,662.887268 
	C714.431213,662.215271 703.116394,658.010620 692.543396,652.044800 
	C669.412537,638.993042 658.891052,618.209595 658.374329,592.650208 
	C657.606445,554.669983 658.133667,516.663513 658.124146,478.668182 
	C658.124084,478.366760 658.325317,478.065277 658.534729,477.476807 
	C676.687439,477.476807 694.934448,477.476807 713.875000,477.476807 
	C713.875000,479.281921 713.875000,481.042328 713.875061,482.802704 
	C713.875366,516.966919 713.841187,551.131226 713.918030,585.295288 
	C713.928101,589.771057 714.288574,594.274353 714.873474,598.713928 
	C715.791199,605.680603 720.158630,609.548523 726.861877,611.001038 
	C728.000977,611.247864 729.149292,611.643433 730.293945,611.645569 
	C751.253845,611.684753 772.213806,611.674194 793.712158,611.674194 
	C793.712158,567.153503 793.712158,522.416382 793.712158,477.435242 
	C812.994446,477.435242 831.740723,477.435242 850.820190,477.435242 
	C850.891174,478.862122 851.010803,480.145721 851.010986,481.429321 
	C851.019165,541.091736 851.088562,600.754272 850.982422,660.416504 
	C850.936401,686.313049 842.027527,708.297729 821.133667,724.514526 
	C806.991699,735.490906 790.712341,742.065613 773.100708,743.776794 
	C757.132263,745.328430 740.957520,744.758301 724.873657,745.119507 
	C724.040894,745.138184 723.207153,745.117249 722.373901,745.117249 
	C678.543701,745.117615 634.713379,745.071472 590.883545,745.195618 
	C586.790100,745.207214 582.520203,745.745117 578.648010,747.007446 
	C572.077087,749.149475 569.953491,755.094788 573.613708,760.940186 
	C575.508301,763.966003 578.087402,766.972778 581.076294,768.832886 
	C593.900940,776.814331 606.707214,784.908142 620.055847,791.945007 
	C638.717163,801.782471 657.942932,810.542847 676.763916,820.085999 
	C693.450562,828.547058 709.222656,838.430115 722.356079,852.023926 
	C740.143921,870.435059 745.595764,891.974487 737.988281,916.406433 
	C730.442261,940.641174 712.824707,954.097900 688.889893,959.839172 
	C682.158752,961.453735 675.047424,962.098145 668.106445,962.124695 
	C618.110718,962.315735 568.113953,962.233337 518.117554,962.237610 
	C517.167175,962.237671 516.216797,962.237610 515.044189,962.237610 
	C515.044189,945.017395 515.044189,928.261108 515.044189,910.945435 
	C516.883179,910.945435 518.659058,910.945496 520.434937,910.945496 
	C568.598145,910.945312 616.761536,910.985657 664.924438,910.872314 
	C669.021606,910.862671 673.289246,910.374512 677.173523,909.146423 
	C683.754150,907.065857 686.015442,901.124878 682.417175,895.275574 
	C680.376709,891.958618 677.598999,888.625732 674.342834,886.607605 
	C660.664551,878.129700 646.957458,869.621033 632.740723,862.107910 
	C613.502075,851.941101 593.629578,842.978394 574.321838,832.936157 
	C556.793030,823.819275 541.057251,812.325867 528.042664,797.076538 
	C505.397614,770.543213 512.933105,726.162537 542.159424,707.016357 
	C555.061035,698.564453 569.161011,694.042664 584.482544,694.002380 
	C638.142944,693.861328 691.805359,694.167114 745.463684,693.810852 
	C755.823608,693.742065 766.168823,691.452332 776.894409,690.078491 
z"/>
<path fill="#58C7DB" opacity="1.000000" stroke="none" 
	d="
M507.949585,954.896118 
	C507.949585,958.703125 507.949585,962.510132 507.949585,966.878113 
	C506.233398,966.993713 504.643982,967.191345 503.054291,967.193726 
	C487.557526,967.217163 472.059875,967.123535 456.564575,967.277100 
	C453.345367,967.309021 451.465942,966.179749 449.628876,963.582520 
	C413.096100,911.933105 376.474487,860.346558 339.855194,808.758423 
	C305.837280,760.834961 271.826752,712.906128 237.723969,665.043091 
	C235.005234,661.227356 233.657425,657.446228 233.667587,652.647949 
	C233.810898,584.995544 233.766083,517.342712 233.766861,449.690033 
	C233.766876,447.728333 233.766861,445.766632 233.766861,443.804932 
	C234.138489,443.632965 234.510132,443.461029 234.881760,443.289062 
	C300.397156,536.395386 365.912537,629.501709 431.427917,722.607971 
	C431.792603,722.510986 432.157288,722.414062 432.521973,722.317078 
	C432.521973,700.123108 432.521973,677.929138 432.521973,654.955261 
	C439.199036,660.302795 444.890289,665.306213 451.023560,669.691467 
	C471.636688,684.429504 494.504913,692.459229 520.059814,692.148987 
	C526.390259,692.072144 532.722534,692.148499 539.500366,692.633789 
	C539.997681,695.658325 540.048645,698.203552 540.099609,700.748718 
	C519.272400,714.379395 509.314819,734.174316 508.301758,758.529968 
	C507.554230,776.502136 514.412903,791.920715 526.563843,804.999695 
	C530.517517,809.255371 534.785278,813.219177 539.059326,818.111816 
	C539.242126,847.417908 539.275024,875.928711 539.307922,904.439514 
	C529.191101,904.439514 519.074280,904.439514 508.177582,904.439514 
	C508.177582,918.448059 508.177582,931.689880 507.645569,945.395508 
	C493.282623,945.875244 479.450562,945.800293 465.621613,945.973633 
	C462.305695,946.015198 460.190918,945.091553 458.205658,942.269104 
	C442.395935,919.793274 426.478394,897.392212 410.450317,875.071350 
	C358.090973,802.155151 305.658203,729.291565 253.344452,656.342712 
	C251.999847,654.467773 251.062637,651.854004 251.016937,649.563232 
	C250.548416,626.075623 250.317917,602.583496 249.992661,579.092957 
	C249.655899,554.769531 249.290680,530.446533 248.924042,506.123566 
	C248.907410,505.019714 248.754028,503.917877 248.664322,502.815125 
	C248.237183,502.816925 247.810059,502.818756 247.382919,502.820557 
	C247.382919,512.625366 247.475967,522.431274 247.366165,532.234863 
	C246.978012,566.890259 246.982956,601.559998 245.848022,636.191895 
	C245.428848,648.983154 248.706223,659.171265 256.122528,669.661560 
	C322.265656,763.220032 387.914459,857.128174 453.622650,950.993591 
	C455.573792,953.780823 457.586029,954.849854 460.961395,954.823547 
	C476.623016,954.701416 492.286652,954.846619 507.949585,954.896118 
z"/>
<path fill="#58C7DB" opacity="1.000000" stroke="none" 
	d="
M540.977539,470.792114 
	C529.175476,471.155304 517.306763,470.850830 505.585266,472.021210 
	C481.498993,474.426270 460.700836,484.805634 442.271057,500.203064 
	C439.353638,502.640533 436.547302,505.210938 432.875153,508.434937 
	C432.612396,506.038483 432.272705,504.384338 432.272308,502.730103 
	C432.248077,405.606964 432.272125,308.483765 432.181915,211.360718 
	C432.178162,207.325882 433.217468,205.897552 437.482117,205.914169 
	C476.130890,206.064865 514.780640,206.057846 553.429504,205.919388 
	C557.547546,205.904648 558.849854,207.072754 558.844604,211.254669 
	C558.737915,296.049866 558.737244,380.845276 558.834229,465.640472 
	C558.838867,469.718658 557.744202,471.519897 553.507080,471.010895 
	C551.371826,470.754364 549.181274,470.958374 546.576416,470.437775 
	C545.520813,393.937317 544.904541,317.953217 544.288269,241.969131 
	C543.868042,241.970703 543.447754,241.972275 543.027466,241.973831 
	C542.344116,318.246582 541.660828,394.519348 540.977539,470.792114 
z"/>
<path fill="#032C5D" opacity="1.000000" stroke="none" 
	d="
M836.003906,805.060669 
	C830.718872,805.060730 825.933105,805.060730 820.845703,805.060730 
	C820.845703,877.490234 820.845703,949.409668 820.845703,1021.740662 
	C801.655823,1021.740662 782.772888,1021.740662 763.547241,1021.740662 
	C763.547241,932.702576 763.547241,843.514465 763.547241,754.081543 
	C764.417908,753.971252 765.206299,753.783264 765.994507,753.784241 
	C804.645630,753.831848 843.324951,752.993469 881.940491,754.197144 
	C925.472595,755.554138 975.738342,790.538940 983.629333,843.828979 
	C988.710632,878.143616 976.868042,907.230835 951.968750,930.746338 
	C929.938965,951.551819 903.595520,962.592407 872.906555,962.258667 
	C862.447083,962.144897 851.985291,962.240601 841.274414,962.240601 
	C841.274414,945.114441 841.274414,928.356506 841.274414,910.945374 
	C842.998169,910.945374 844.755676,910.976379 846.511780,910.940308 
	C858.655457,910.691345 870.940735,911.514771 882.913696,909.950928 
	C910.608643,906.333740 929.001953,881.583618 927.011414,852.188782 
	C925.308899,827.047852 902.162109,805.579407 875.987122,805.116089 
	C862.829590,804.883179 849.664795,805.065796 836.003906,805.060669 
z"/>
<path fill="#032C5D" opacity="1.000000" stroke="none" 
	d="
M555.000000,477.185913 
	C580.456848,477.185883 605.413696,477.185883 630.670288,477.185883 
	C630.670288,546.797546 630.670288,616.027100 630.670288,685.613831 
	C611.882996,685.613831 592.989624,685.613831 573.679321,685.613831 
	C573.679321,633.580444 573.679321,581.488464 573.679321,529.049561 
	C571.831299,528.951782 570.377136,528.809326 568.922913,528.807983 
	C552.762268,528.792847 536.601318,528.742920 520.440979,528.812988 
	C492.699554,528.933228 469.876068,549.070190 467.136597,575.752991 
	C464.359772,602.799438 482.425293,627.864807 509.473785,633.250671 
	C517.687744,634.886230 526.374451,634.224792 534.848999,634.447937 
	C540.809387,634.604797 546.777283,634.478271 552.914917,634.478271 
	C552.914917,651.765198 552.914917,668.549438 552.914917,685.969788 
	C541.953308,685.969788 530.973999,686.622070 520.108826,685.787781 
	C509.067902,684.939941 497.616760,684.175476 487.255066,680.678589 
	C448.456116,667.584473 421.067047,642.362854 411.892242,601.384094 
	C403.692291,564.759460 415.875854,533.625427 442.749298,508.369995 
	C464.990204,487.468170 491.737366,476.898102 522.512756,477.171082 
	C533.174377,477.265656 543.837524,477.186005 555.000000,477.185913 
z"/>
<path fill="#032C5D" opacity="1.000000" stroke="none" 
	d="
M1036.786621,676.968750 
	C1036.786743,627.501648 1036.786743,578.531372 1036.786743,529.155579 
	C1035.109497,529.020874 1033.687622,528.809326 1032.265503,528.807373 
	C1015.934204,528.784973 999.602417,528.716125 983.271729,528.812805 
	C955.462097,528.977539 932.977600,549.272095 930.201477,576.587524 
	C927.509399,603.076111 946.597839,628.884033 973.443237,633.447998 
	C983.677124,635.187927 994.372131,634.235535 1004.857971,634.462341 
	C1008.491699,634.540894 1012.128418,634.474915 1015.994995,634.474915 
	C1015.994995,651.734558 1015.994995,668.521362 1015.994995,685.970947 
	C1011.954041,685.970947 1007.850708,685.993958 1003.747620,685.966919 
	C988.277466,685.864929 972.636475,687.225769 957.529297,682.900879 
	C914.807495,670.670593 884.501648,644.903992 874.896118,600.362061 
	C866.354370,560.752991 881.445496,528.382202 911.992859,503.092163 
	C933.090271,485.625671 957.685181,477.036896 985.263062,477.151642 
	C1019.591553,477.294464 1053.921021,477.185852 1088.250000,477.185822 
	C1090.035522,477.185822 1091.821045,477.185822 1093.822998,477.185822 
	C1093.822998,546.928040 1093.822998,616.177917 1093.822998,685.699707 
	C1074.969116,685.699707 1056.221191,685.699707 1036.786499,685.699707 
	C1036.786499,682.979370 1036.786499,680.222534 1036.786621,676.968750 
M1050.511963,483.095673 
	C1039.944214,483.095673 1029.376587,483.095673 1018.808899,483.095673 
	C1018.768066,483.849487 1018.727234,484.603271 1018.686401,485.357086 
	C1020.506042,485.552795 1022.322571,485.882080 1024.145752,485.923615 
	C1042.791138,486.348419 1061.436646,486.770264 1080.084229,487.070038 
	C1082.860596,487.114655 1084.037476,487.999054 1083.831909,490.845825 
	C1083.568237,494.496246 1083.385864,498.163422 1083.408325,501.821930 
	C1083.681519,546.455261 1083.893677,591.089478 1084.369019,635.720825 
	C1084.510498,649.003662 1085.421631,662.278320 1085.980103,675.556702 
	C1086.380615,675.548767 1086.781006,675.540833 1087.181519,675.532837 
	C1087.181519,668.639771 1087.126953,661.746216 1087.190186,654.853699 
	C1087.704956,598.736694 1088.222168,542.619690 1088.821899,486.503510 
	C1088.857300,483.195190 1087.716919,482.166656 1084.466919,482.282349 
	C1073.485107,482.673401 1062.494873,482.829803 1050.511963,483.095673 
z"/>
<path fill="#022C5D" opacity="1.000000" stroke="none" 
	d="
M1148.419678,754.521606 
	C1190.575073,770.253479 1217.721802,799.213013 1223.532959,843.816284 
	C1229.738770,891.447693 1209.417969,927.996155 1168.396484,952.013245 
	C1105.200073,989.013306 1022.478943,956.679199 1001.742310,887.686646 
	C985.809998,834.678223 1013.999939,778.424744 1067.430176,757.011230 
	C1093.921875,746.393982 1120.880371,745.957642 1148.419678,754.521606 
M1093.962646,802.297485 
	C1075.092529,808.073181 1063.218018,820.781982 1057.461304,839.405579 
	C1054.303345,849.621948 1054.126343,860.039856 1056.029663,870.528564 
	C1063.631592,912.419739 1115.410156,931.294495 1147.428711,903.302368 
	C1166.226196,886.868896 1170.960571,865.199463 1165.127686,841.420593 
	C1160.343872,821.918945 1148.238647,808.491516 1128.782593,802.460999 
	C1117.550659,798.979431 1106.128662,799.226379 1093.962646,802.297485 
z"/>
<path fill="#032D5E" opacity="1.000000" stroke="none" 
	d="
M1510.063965,910.942505 
	C1531.198120,910.943481 1551.841187,910.943481 1572.801025,910.943481 
	C1572.801025,928.059509 1572.801025,944.932251 1572.801025,962.241577 
	C1565.544067,962.241577 1558.423828,962.263184 1551.303711,962.237305 
	C1534.306641,962.175537 1517.281860,962.677124 1500.319092,961.875671 
	C1476.380371,960.744629 1454.025024,954.309326 1435.470825,938.195435 
	C1417.488037,922.577881 1409.355957,902.191406 1409.227539,878.868896 
	C1408.891724,817.877502 1409.102661,756.883118 1409.105957,695.889893 
	C1409.105957,695.416443 1409.250244,694.942993 1409.376709,694.164795 
	C1428.304932,694.164795 1447.193115,694.164795 1466.526245,694.164795 
	C1466.526245,713.892212 1466.526245,733.501160 1466.526245,753.637207 
	C1502.186646,753.637207 1537.410034,753.637207 1572.874023,753.637207 
	C1572.874023,770.927368 1572.874023,787.687012 1572.874023,804.939941 
	C1537.653809,804.939941 1502.422119,804.939941 1466.877563,804.939941 
	C1466.758301,806.842346 1466.590576,808.279358 1466.589722,809.716492 
	C1466.576538,831.380798 1466.552734,853.045227 1466.619385,874.709290 
	C1466.631104,878.533142 1466.694702,882.414307 1467.329224,886.168457 
	C1469.731323,900.382812 1478.351685,907.981262 1494.128784,909.861572 
	C1499.247070,910.471497 1504.423218,910.595276 1510.063965,910.942505 
M1566.843872,930.079529 
	C1566.843872,926.154297 1566.843872,922.229126 1566.843872,918.166931 
	C1565.006348,918.081116 1563.694824,917.983093 1562.382324,917.963989 
	C1539.736816,917.634277 1517.091797,917.275879 1494.445435,917.014832 
	C1487.342651,916.932983 1481.041138,914.816223 1475.567871,910.305542 
	C1466.627563,902.937378 1462.561157,893.409790 1462.560425,881.857727 
	C1462.558716,856.878113 1462.354004,831.898560 1462.234253,806.918945 
	C1462.225708,805.128113 1462.233154,803.337219 1462.233154,800.274536 
	C1497.400879,800.274536 1532.072876,800.274536 1566.744873,800.274536 
	C1566.744873,790.476685 1566.744873,781.959106 1566.744873,773.441589 
	C1566.524292,773.435059 1566.303833,773.428589 1566.083252,773.422058 
	C1565.650269,781.468567 1565.217163,789.515076 1564.797607,797.310669 
	C1529.004761,797.310669 1493.662842,797.310669 1458.089111,797.310669 
	C1458.089111,827.268616 1457.574219,856.909851 1458.280151,886.522034 
	C1458.711060,904.598022 1474.822632,920.394897 1491.957153,920.799072 
	C1505.432007,921.116943 1518.927612,920.483948 1532.414795,920.375977 
	C1543.176758,920.289795 1553.940063,920.358459 1564.807739,920.358459 
	C1565.101318,924.073120 1565.373901,927.523438 1565.361694,931.875793 
	C1565.361694,938.223145 1565.361694,944.570496 1565.361694,950.917908 
	C1565.795654,950.915833 1566.229736,950.913818 1566.663696,950.911804 
	C1566.663696,944.272278 1566.663696,937.632690 1566.843872,930.079529 
z"/>
<path fill="#032D5E" opacity="1.000000" stroke="none" 
	d="
M1264.000244,962.241699 
	C1257.220337,962.241699 1250.940308,962.241699 1244.420532,962.241699 
	C1244.330811,960.251038 1244.207520,958.789490 1244.207275,957.327942 
	C1244.199341,918.189636 1244.151123,879.051147 1244.227905,839.913025 
	C1244.268066,819.503113 1249.398438,800.728638 1263.030884,784.967346 
	C1277.669678,768.042542 1296.826294,758.943420 1318.476929,756.255188 
	C1335.739868,754.111877 1353.314209,754.404053 1370.756836,753.812866 
	C1378.560791,753.548340 1386.380981,753.768066 1394.505615,753.768066 
	C1394.505615,770.824402 1394.505615,787.566833 1394.505615,805.061035 
	C1392.846558,805.061035 1391.100464,805.038208 1389.355225,805.064575 
	C1370.217407,805.353638 1351.078979,805.616882 1331.942627,805.988831 
	C1329.640137,806.033569 1327.328125,806.578979 1325.056274,807.060486 
	C1309.529907,810.351135 1302.203735,818.398010 1302.054077,834.402222 
	C1301.675415,874.868835 1301.830566,915.340393 1301.772461,955.809998 
	C1301.769531,957.769531 1301.771973,959.729004 1301.771973,962.241699 
	C1289.044556,962.241699 1276.772339,962.241699 1264.000244,962.241699 
z"/>
<path fill="#58C7DB" opacity="1.000000" stroke="none" 
	d="
M540.007568,627.883667 
	C530.047363,627.607422 519.842773,628.626038 510.174652,626.801758 
	C485.397186,622.126587 471.503479,598.870605 473.365204,578.407898 
	C475.671692,553.057007 495.325897,535.180603 519.797852,535.034119 
	C526.294067,534.995239 532.791016,535.080994 539.827209,535.656189 
	C540.247009,566.763123 540.127319,597.323425 540.007568,627.883667 
z"/>
<path fill="#033361" opacity="1.000000" stroke="none" 
	d="
M508.087921,954.544495 
	C492.286652,954.846619 476.623016,954.701416 460.961395,954.823547 
	C457.586029,954.849854 455.573792,953.780823 453.622650,950.993591 
	C387.914459,857.128174 322.265656,763.220032 256.122528,669.661560 
	C248.706223,659.171265 245.428848,648.983154 245.848022,636.191895 
	C246.982956,601.559998 246.978012,566.890259 247.366165,532.234863 
	C247.475967,522.431274 247.382919,512.625366 247.382919,502.820557 
	C247.810059,502.818756 248.237183,502.816925 248.664322,502.815125 
	C248.754028,503.917877 248.907410,505.019714 248.924042,506.123566 
	C249.290680,530.446533 249.655899,554.769531 249.992661,579.092957 
	C250.317917,602.583496 250.548416,626.075623 251.016937,649.563232 
	C251.062637,651.854004 251.999847,654.467773 253.344452,656.342712 
	C305.658203,729.291565 358.090973,802.155151 410.450317,875.071350 
	C426.478394,897.392212 442.395935,919.793274 458.205658,942.269104 
	C460.190918,945.091553 462.305695,946.015198 465.621613,945.973633 
	C479.450562,945.800293 493.282623,945.875244 507.584839,945.851257 
	C508.112885,948.626526 508.169556,951.409668 508.087921,954.544495 
z"/>
<path fill="#062D5D" opacity="1.000000" stroke="none" 
	d="
M166.508636,1125.555420 
	C164.443970,1117.874146 162.530396,1110.576538 160.616837,1103.278809 
	C160.247360,1103.330078 159.877869,1103.381348 159.508392,1103.432617 
	C159.508392,1120.656494 159.508392,1137.880249 159.508392,1155.368408 
	C155.734680,1155.368408 152.484024,1155.368408 148.932404,1155.368408 
	C148.932404,1130.027466 148.932404,1104.784790 148.932404,1079.246338 
	C153.849991,1079.246338 158.759644,1079.246338 163.998978,1079.246338 
	C167.725861,1093.515137 171.482468,1107.897705 175.239059,1122.280151 
	C175.466400,1122.247559 175.693726,1122.214966 175.921066,1122.182373 
	C175.921066,1107.991699 175.921066,1093.801147 175.921066,1079.282471 
	C179.612076,1079.282471 183.006866,1079.282471 186.702362,1079.282471 
	C186.702362,1104.444214 186.702362,1129.683716 186.702362,1155.284424 
	C182.715652,1155.284424 178.651230,1155.284424 174.300644,1155.284424 
	C171.756607,1145.513916 169.208176,1135.726440 166.508636,1125.555420 
z"/>
<path fill="#0D3361" opacity="1.000000" stroke="none" 
	d="
M339.361176,1084.745850 
	C340.635590,1089.503540 342.442291,1093.944214 342.592712,1098.440308 
	C343.009674,1110.902588 342.956848,1123.393799 342.625946,1135.861328 
	C342.496979,1140.719971 341.127747,1145.545654 340.226318,1150.970825 
	C341.545319,1151.296997 343.392914,1151.753784 345.457703,1152.264160 
	C345.457703,1155.583252 345.457703,1158.968872 345.457703,1162.543823 
	C340.322418,1163.067505 336.032959,1162.536377 333.011475,1157.917725 
	C332.357727,1156.918213 330.511414,1156.319702 329.166687,1156.226685 
	C325.888123,1156.000244 322.518005,1156.597900 319.299164,1156.109375 
	C311.798981,1154.971191 306.356659,1150.112305 306.119049,1142.647217 
	C305.580139,1125.716309 305.576752,1108.744629 306.126526,1091.814453 
	C306.348541,1084.977783 310.958801,1080.124512 317.873413,1078.623535 
	C325.842285,1076.893677 333.488831,1077.278809 339.361176,1084.745850 
M324.398407,1145.736084 
	C328.739960,1145.272217 330.255615,1142.529663 330.254242,1138.524292 
	C330.249420,1124.405762 330.278076,1110.287354 330.248932,1096.168823 
	C330.240479,1092.076904 328.991821,1088.914551 324.090057,1088.909424 
	C319.243561,1088.904297 317.859619,1091.932495 317.855164,1096.092896 
	C317.840057,1110.211426 317.870880,1124.330078 317.844971,1138.448608 
	C317.837616,1142.459351 319.293701,1145.207275 324.398407,1145.736084 
z"/>
<path fill="#062D5D" opacity="1.000000" stroke="none" 
	d="
M897.127747,1078.952148 
	C903.276245,1078.969360 908.942200,1078.802979 914.590698,1079.045044 
	C924.258789,1079.459106 929.571289,1084.842651 929.975708,1094.467041 
	C930.122192,1097.952759 930.640015,1101.652344 929.722961,1104.896606 
	C928.523376,1109.140381 926.068848,1113.029297 924.085327,1117.216431 
	C928.440674,1119.271240 929.871704,1124.318481 929.985596,1129.843872 
	C930.159668,1138.285767 930.031250,1146.733887 930.031250,1155.488525 
	C930.424744,1155.318848 930.130859,1155.541870 929.822021,1155.564941 
	C917.957397,1156.455444 917.956543,1156.453003 917.948608,1144.651978 
	C917.946045,1140.824341 917.967529,1136.996460 917.943481,1133.168945 
	C917.885742,1124.000977 915.946350,1122.302002 906.156372,1123.131348 
	C906.156372,1133.699341 906.156372,1144.307007 906.156372,1155.273438 
	C902.093079,1155.273438 898.368652,1155.273438 894.240173,1155.273438 
	C894.127319,1154.484009 893.881592,1153.563232 893.880737,1152.642334 
	C893.859009,1129.343384 893.862854,1106.044434 893.862732,1082.745483 
	C893.862732,1080.805664 893.310547,1078.459595 897.127747,1078.952148 
M917.184448,1093.611328 
	C914.818359,1088.015869 910.241150,1090.361572 906.319580,1090.158203 
	C906.319580,1097.605347 906.319580,1104.637817 906.319580,1111.641235 
	C915.893921,1112.225952 917.901123,1110.410645 917.873596,1101.315918 
	C917.866699,1099.015869 917.600098,1096.716797 917.184448,1093.611328 
z"/>
<path fill="#042C5C" opacity="1.000000" stroke="none" 
	d="
M817.674866,1078.193604 
	C819.925964,1078.046997 821.757202,1077.892578 823.584717,1077.928711 
	C833.913696,1078.132812 840.706726,1084.326294 840.918640,1094.614746 
	C841.230530,1109.763306 841.253357,1124.928955 840.902710,1140.075928 
	C840.664551,1150.365723 833.562744,1156.539185 822.879333,1156.738037 
	C812.030640,1156.939941 804.447205,1150.744873 804.151489,1140.296509 
	C803.718262,1124.987549 803.811157,1109.652832 804.121094,1094.338013 
	C804.293396,1085.826294 808.655640,1081.024658 817.674866,1078.193604 
M822.509827,1145.791138 
	C827.146057,1145.522217 828.872498,1142.594849 828.892334,1138.443115 
	C828.960083,1124.284912 828.985718,1110.125732 828.881409,1095.967896 
	C828.851318,1091.882935 827.264771,1088.820801 822.415161,1088.855469 
	C817.837280,1088.888184 816.210754,1091.813721 816.175049,1095.674072 
	C816.042725,1109.997803 816.072815,1124.323730 816.149841,1138.648315 
	C816.169556,1142.312622 817.659729,1145.123901 822.509827,1145.791138 
z"/>
<path fill="#042C5C" opacity="1.000000" stroke="none" 
	d="
M58.980034,1091.013184 
	C58.979942,1086.871460 58.979942,1083.226929 58.979942,1079.270142 
	C62.931511,1079.270142 66.675919,1079.270142 71.134315,1079.270142 
	C71.134315,1080.698120 71.134293,1082.277344 71.134323,1083.856689 
	C71.134674,1101.176147 71.127213,1118.495605 71.147964,1135.815063 
	C71.149956,1137.472656 71.178551,1139.155273 71.455544,1140.781982 
	C72.012604,1144.053467 74.204376,1145.723022 77.397491,1145.714233 
	C80.546448,1145.705566 82.866371,1144.217773 83.332634,1140.836670 
	C83.603935,1138.869385 83.722244,1136.866333 83.725304,1134.879150 
	C83.753731,1116.421631 83.742111,1097.963989 83.742111,1079.231567 
	C87.622391,1079.231567 91.219086,1079.231567 95.022583,1079.231567 
	C95.146217,1079.786377 95.402344,1080.401245 95.402985,1081.016357 
	C95.422531,1099.834595 95.591621,1118.655029 95.359245,1137.470337 
	C95.178452,1152.109863 86.308632,1158.989136 72.013084,1156.100464 
	C63.850098,1154.450928 59.099674,1148.213379 59.022648,1138.472534 
	C58.898872,1122.819336 58.983540,1107.164551 58.980034,1091.013184 
z"/>
<path fill="#042C5C" opacity="1.000000" stroke="none" 
	d="
M395.197083,1142.330566 
	C395.124634,1121.104370 395.124634,1100.311279 395.124634,1079.237183 
	C398.950348,1079.237183 402.697968,1079.237183 407.068909,1079.237183 
	C407.068909,1080.774658 407.068878,1082.369629 407.068909,1083.964600 
	C407.069305,1101.456177 407.044952,1118.947876 407.104553,1136.439209 
	C407.111237,1138.400635 406.952454,1140.881836 408.016327,1142.190430 
	C409.376373,1143.863647 411.917755,1145.491699 413.917297,1145.452637 
	C415.653900,1145.418945 417.935150,1143.358521 418.888947,1141.603271 
	C419.831970,1139.867554 419.563721,1137.392822 419.569183,1135.241699 
	C419.611847,1118.416504 419.592468,1101.591309 419.592316,1084.766113 
	C419.592285,1082.960449 419.592285,1081.154663 419.592285,1079.153564 
	C423.603790,1079.153564 427.196991,1079.153564 431.285217,1079.153564 
	C431.285217,1085.778931 431.287598,1092.220581 431.284729,1098.662354 
	C431.278870,1111.822632 431.459473,1124.986328 431.212433,1138.142090 
	C430.934570,1152.940308 419.300385,1160.551758 405.349884,1155.408081 
	C399.396118,1153.212891 396.582855,1148.609619 395.197083,1142.330566 
z"/>
<path fill="#0E3462" opacity="1.000000" stroke="none" 
	d="
M729.804688,1141.989136 
	C729.804688,1146.630615 729.804688,1150.775024 729.804688,1155.291260 
	C725.633301,1155.291260 721.763550,1155.291260 717.614746,1155.291260 
	C717.614746,1129.884399 717.614746,1104.668213 717.614746,1079.194946 
	C725.221313,1079.194946 732.704163,1078.669800 740.077881,1079.341797 
	C747.537048,1080.021729 752.102173,1084.777832 753.055359,1092.347412 
	C753.755554,1097.908813 753.971802,1103.668457 753.366394,1109.226807 
	C752.272827,1119.268555 746.910767,1123.801270 736.833130,1124.269165 
	C734.687561,1124.368774 732.533386,1124.283691 729.804688,1124.283691 
	C729.804688,1130.259033 729.804688,1135.875488 729.804688,1141.989136 
M731.496155,1089.981079 
	C730.965698,1090.280151 729.975647,1090.573853 729.972046,1090.878906 
	C729.885864,1098.302856 729.904724,1105.728027 729.904724,1113.099731 
	C740.653503,1113.690186 741.358337,1113.021851 741.368652,1102.841675 
	C741.369995,1101.509277 741.380005,1100.176636 741.367676,1098.844360 
	C741.294739,1090.941162 740.360046,1090.015869 731.496155,1089.981079 
z"/>
<path fill="#082F5E" opacity="1.000000" stroke="none" 
	d="
M662.124634,1122.983643 
	C663.530884,1128.399170 665.694336,1133.474487 665.797791,1138.591431 
	C666.024841,1149.821167 659.299927,1156.290405 648.284607,1156.745605 
	C637.210938,1157.203369 630.655945,1151.292847 629.653320,1139.837524 
	C629.468262,1137.722900 629.626892,1135.578247 629.626892,1133.221680 
	C633.475891,1133.221680 637.053589,1133.221680 641.170898,1133.221680 
	C641.170898,1135.654419 640.958191,1137.962524 641.220520,1140.215332 
	C641.620300,1143.648315 643.750183,1145.649292 647.231079,1145.706543 
	C650.654541,1145.762939 652.911743,1144.055176 653.496216,1140.530396 
	C654.406738,1135.039551 652.782288,1130.281006 648.973206,1126.352783 
	C644.917175,1122.169922 640.567932,1118.270752 636.529419,1114.072021 
	C630.243652,1107.536743 628.606689,1099.544556 630.314148,1090.917480 
	C632.066772,1082.061890 638.581787,1077.689087 648.857300,1077.903687 
	C658.050293,1078.095703 663.543518,1082.630005 665.174500,1091.552612 
	C665.646362,1094.134399 665.746338,1096.784058 666.060303,1099.823242 
	C661.924255,1099.823242 658.222229,1099.823242 654.245483,1099.823242 
	C654.142883,1097.768921 654.199402,1095.789673 653.912842,1093.861450 
	C653.431458,1090.621704 651.505737,1088.926392 648.120972,1088.881226 
	C644.714722,1088.835693 642.731079,1090.567993 642.181458,1093.740723 
	C641.178223,1099.531616 643.718018,1104.084717 647.636414,1108.067871 
	C652.414612,1112.924927 657.177795,1117.796875 662.124634,1122.983643 
z"/>
<path fill="#082F5E" opacity="1.000000" stroke="none" 
	d="
M1234.016357,1124.008789 
	C1230.393799,1120.537354 1226.896606,1117.436279 1223.698486,1114.052368 
	C1218.361572,1108.405396 1216.329468,1101.572998 1217.008423,1093.856201 
	C1217.822754,1084.600830 1223.661743,1078.586304 1232.557617,1077.964478 
	C1244.001343,1077.164551 1250.379028,1081.460815 1252.409424,1091.543457 
	C1252.928101,1094.119751 1252.923950,1096.801270 1253.195557,1099.829224 
	C1249.148682,1099.829224 1245.455933,1099.829224 1241.497437,1099.829224 
	C1241.369141,1097.915283 1241.277100,1096.121948 1241.123047,1094.334106 
	C1240.842041,1091.072266 1239.225342,1089.138794 1235.793823,1088.903320 
	C1232.198364,1088.656860 1230.036499,1090.316650 1229.372803,1093.763916 
	C1228.413330,1098.747314 1230.192383,1103.029907 1233.533325,1106.547363 
	C1237.197144,1110.404663 1241.258423,1113.881104 1245.028198,1117.642090 
	C1252.667847,1125.264038 1254.827881,1134.461914 1252.109619,1144.732178 
	C1249.904297,1153.064087 1242.697510,1157.448364 1233.217529,1156.702271 
	C1223.776733,1155.959473 1218.069580,1150.898926 1217.058350,1142.078735 
	C1216.738892,1139.292480 1217.008423,1136.438599 1217.008423,1133.299316 
	C1220.498657,1133.299316 1224.075806,1133.299316 1227.960205,1133.299316 
	C1228.126343,1135.693970 1228.131592,1138.146362 1228.502075,1140.542358 
	C1229.039307,1144.016968 1231.321289,1145.781860 1234.774170,1145.707031 
	C1238.261841,1145.631348 1240.320068,1143.640747 1240.797241,1140.209351 
	C1241.708618,1133.654785 1238.833862,1128.597656 1234.016357,1124.008789 
z"/>
<path fill="#0E3462" opacity="1.000000" stroke="none" 
	d="
M496.859070,1098.031738 
	C496.859039,1102.161133 496.859039,1105.800171 496.859039,1109.855957 
	C502.376221,1109.855957 507.635315,1109.855957 513.250854,1109.855957 
	C513.250854,1113.663696 513.250854,1117.058350 513.250854,1120.901367 
	C508.003693,1120.901367 502.757690,1120.901367 497.190125,1120.901367 
	C497.190125,1128.880859 497.190125,1136.431763 497.190125,1144.489502 
	C503.935913,1144.489502 510.669464,1144.489502 517.674683,1144.489502 
	C517.674683,1148.370239 517.674683,1151.752808 517.674683,1155.406250 
	C506.734161,1155.406250 495.971466,1155.406250 484.819824,1155.406250 
	C484.819824,1130.031738 484.819824,1104.677856 484.819824,1079.128052 
	C495.720703,1079.128052 506.496460,1079.128052 517.615784,1079.128052 
	C517.615784,1082.537109 517.615784,1085.927734 517.615784,1089.798828 
	C510.931793,1089.798828 504.193054,1089.798828 496.859070,1089.798828 
	C496.859070,1092.677246 496.859070,1095.109375 496.859070,1098.031738 
z"/>
<path fill="#062E5C" opacity="1.000000" stroke="none" 
	d="
M1561.005737,1098.000488 
	C1561.005737,1091.526855 1561.005737,1085.553101 1561.005737,1079.266846 
	C1572.135010,1079.266846 1583.026978,1079.266846 1594.140869,1079.266846 
	C1594.140869,1082.711914 1594.140869,1086.144287 1594.140869,1090.007568 
	C1587.159180,1090.007568 1580.407593,1090.007568 1573.435547,1090.007568 
	C1573.435547,1096.702148 1573.435547,1102.971436 1573.435547,1109.819092 
	C1578.745972,1109.819092 1584.121704,1109.819092 1589.768799,1109.819092 
	C1589.768799,1113.779175 1589.768799,1117.171753 1589.768799,1120.928955 
	C1584.431641,1120.928955 1579.162354,1120.928955 1573.551270,1120.928955 
	C1573.551270,1128.836792 1573.551270,1136.393799 1573.551270,1144.483398 
	C1580.340332,1144.483398 1587.074341,1144.483398 1594.087158,1144.483398 
	C1594.087158,1148.396973 1594.087158,1151.784058 1594.087158,1155.408813 
	C1583.089600,1155.408813 1572.344604,1155.408813 1561.005737,1155.408813 
	C1561.005737,1136.333130 1561.005737,1117.416748 1561.005737,1098.000488 
z"/>
<path fill="#0B3260" opacity="1.000000" stroke="none" 
	d="
M1399.475342,1117.687744 
	C1395.104980,1104.746826 1390.913086,1092.177368 1386.591919,1079.219971 
	C1391.110107,1079.219971 1395.173096,1079.219971 1399.551270,1079.219971 
	C1402.168701,1087.915527 1404.803101,1096.666992 1407.437378,1105.418579 
	C1407.766113,1105.430908 1408.094727,1105.443237 1408.423462,1105.455688 
	C1411.023804,1096.812622 1413.624268,1088.169678 1416.311279,1079.238770 
	C1420.003540,1079.238770 1423.755005,1079.238770 1428.154053,1079.238770 
	C1426.208618,1085.064819 1424.636597,1090.914062 1422.332764,1096.459473 
	C1415.202881,1113.620728 1411.828003,1131.330811 1413.534424,1149.919678 
	C1413.684326,1151.551880 1413.554199,1153.209839 1413.554199,1155.258545 
	C1409.392578,1155.258545 1405.537598,1155.258545 1401.153320,1155.258545 
	C1401.153320,1146.190796 1401.288940,1137.250854 1401.084839,1128.318604 
	C1401.006348,1124.889648 1400.153809,1121.478394 1399.475342,1117.687744 
z"/>
<path fill="#0B3260" opacity="1.000000" stroke="none" 
	d="
M1091.013550,1090.907715 
	C1092.200928,1086.858032 1093.313354,1083.203979 1094.518188,1079.247070 
	C1098.199341,1079.247070 1101.964355,1079.247070 1106.367432,1079.247070 
	C1104.336914,1085.312744 1102.712891,1091.360229 1100.319824,1097.086304 
	C1093.337646,1113.793091 1090.235229,1131.055542 1091.817261,1149.131836 
	C1091.987915,1151.081787 1091.840210,1153.059448 1091.840210,1155.341797 
	C1087.678711,1155.341797 1083.923340,1155.341797 1079.927979,1155.341797 
	C1077.736816,1142.485474 1081.834106,1129.189575 1077.266235,1116.422485 
	C1072.910156,1104.247192 1069.033081,1091.900635 1064.818359,1079.248047 
	C1069.212769,1079.248047 1073.269531,1079.248047 1077.749023,1079.248047 
	C1080.345215,1087.814453 1083.002686,1096.582764 1085.660156,1105.351074 
	C1085.989746,1105.336670 1086.319336,1105.322266 1086.648926,1105.307861 
	C1088.078857,1100.639771 1089.508789,1095.971558 1091.013550,1090.907715 
z"/>
<path fill="#0E3462" opacity="1.000000" stroke="none" 
	d="
M1006.141235,1090.021118 
	C1005.365906,1091.773315 1004.822876,1093.485718 1004.817017,1095.199951 
	C1004.755066,1113.340332 1004.778687,1131.480957 1004.778687,1149.621582 
	C1004.778687,1151.418335 1004.778625,1153.214966 1004.778625,1155.340332 
	C1000.618408,1155.340332 996.867920,1155.340332 992.632874,1155.340332 
	C992.632874,1133.830444 992.632874,1112.279053 992.632874,1090.132812 
	C988.139221,1090.132812 984.102966,1090.132812 979.889282,1090.132812 
	C979.889282,1086.097168 979.889282,1082.659424 979.889282,1079.100342 
	C992.398621,1079.100342 1004.678711,1079.100342 1017.205444,1079.100342 
	C1017.205444,1082.690063 1017.205444,1086.114136 1017.205444,1089.982178 
	C1013.531433,1089.982178 1010.077148,1089.982178 1006.141235,1090.021118 
z"/>
<path fill="#082F5E" opacity="1.000000" stroke="none" 
	d="
M1314.107666,1100.024170 
	C1314.107544,1096.550781 1314.107544,1093.572876 1314.107544,1090.169434 
	C1309.974609,1090.169434 1306.052734,1090.169434 1301.734863,1090.169434 
	C1301.734863,1086.376953 1301.734863,1083.000977 1301.734863,1079.279785 
	C1314.024780,1079.279785 1326.384521,1079.279785 1338.953613,1079.279785 
	C1338.953613,1082.665039 1338.953613,1085.944458 1338.953613,1089.812256 
	C1334.951538,1089.812256 1330.897339,1089.812256 1326.406494,1089.812256 
	C1326.406494,1111.951538 1326.406494,1133.509155 1326.406494,1155.356201 
	C1322.225708,1155.356201 1318.491089,1155.356201 1314.107788,1155.356201 
	C1314.107788,1136.994507 1314.107788,1118.757080 1314.107666,1100.024170 
z"/>
<path fill="#113764" opacity="1.000000" stroke="none" 
	d="
M1478.184570,1127.000000 
	C1478.184570,1110.869995 1478.184570,1095.239990 1478.184570,1079.270020 
	C1482.372681,1079.270020 1486.255737,1079.270020 1490.658813,1079.270020 
	C1490.658813,1100.907104 1490.658813,1122.477539 1490.658813,1144.572144 
	C1497.561646,1144.572144 1503.974731,1144.572144 1510.594238,1144.572144 
	C1510.594238,1148.373657 1510.594238,1151.648926 1510.594238,1155.306396 
	C1499.992188,1155.306396 1489.434814,1155.306396 1478.184570,1155.306396 
	C1478.184570,1146.012939 1478.184570,1136.756470 1478.184570,1127.000000 
z"/>
<path fill="#60C8DC" opacity="1.000000" stroke="none" 
	d="
M546.888977,535.225708 
	C550.661255,535.225708 554.433472,535.225708 558.496948,535.225708 
	C558.496948,566.212158 558.496948,596.784241 558.496948,628.063049 
	C554.839600,628.063049 551.402954,628.063049 547.542114,627.536865 
	C547.041687,596.415710 546.965332,565.820679 546.888977,535.225708 
z"/>
<path fill="#082F5E" opacity="1.000000" stroke="none" 
	d="
M240.556854,1086.138428 
	C240.557632,1083.525146 240.557632,1081.392822 240.557632,1079.144775 
	C244.809753,1079.144775 248.584671,1079.144775 252.619751,1079.144775 
	C252.619751,1104.559082 252.619751,1129.777832 252.619751,1155.320557 
	C248.772705,1155.320557 245.017853,1155.320557 240.556076,1155.320557 
	C240.556076,1132.434814 240.556076,1109.527100 240.556854,1086.138428 
z"/>
<path fill="#60C8DC" opacity="1.000000" stroke="none" 
	d="
M548.205933,824.855835 
	C551.170715,826.644165 554.294861,828.225708 557.020142,830.324951 
	C558.075989,831.138184 558.714111,833.120789 558.721069,834.574585 
	C558.826660,856.485596 558.735718,878.397644 558.856262,900.308594 
	C558.875732,903.850037 557.573425,905.141174 554.178101,904.820984 
	C552.366028,904.650085 550.530212,904.731995 548.303833,904.205139 
	C547.935120,899.052368 547.981567,894.394409 547.997498,889.736267 
	C548.071594,868.109436 548.137268,846.482666 548.205933,824.855835 
z"/>
<path fill="#053B66" opacity="1.000000" stroke="none" 
	d="
M541.397705,470.885925 
	C541.660828,394.519348 542.344116,318.246582 543.027466,241.973831 
	C543.447754,241.972275 543.868042,241.970703 544.288269,241.969131 
	C544.904541,317.953217 545.520813,393.937317 546.126953,470.375061 
	C544.683777,470.879028 543.250854,470.929382 541.397705,470.885925 
z"/>
<path fill="#033361" opacity="1.000000" stroke="none" 
	d="
M548.057739,824.551636 
	C548.137268,846.482666 548.071594,868.109436 547.997498,889.736267 
	C547.981567,894.394409 547.935120,899.052368 547.841797,904.145264 
	C545.231262,904.600098 542.681641,904.620178 539.719971,904.539856 
	C539.275024,875.928711 539.242126,847.417908 539.155762,818.437866 
	C542.038147,820.061584 544.973938,822.154541 548.057739,824.551636 
z"/>
<path fill="#033361" opacity="1.000000" stroke="none" 
	d="
M546.474487,535.148560 
	C546.965332,565.820679 547.041687,596.415710 547.087158,627.472107 
	C544.995789,627.978516 542.935303,628.023499 540.441223,627.976074 
	C540.127319,597.323425 540.247009,566.763123 540.300537,535.758911 
	C542.176147,535.233765 544.118103,535.152649 546.474487,535.148560 
z"/>
<path fill="#113764" opacity="1.000000" stroke="none" 
	d="
M540.412109,700.636536 
	C540.048645,698.203552 539.997681,695.658325 539.963623,692.693237 
	C542.920593,692.447815 545.860840,692.622314 548.801025,692.796814 
	C548.983032,693.433289 549.165100,694.069763 549.347107,694.706177 
	C546.472961,696.645569 543.598816,698.584961 540.412109,700.636536 
z"/>
<path fill="#F2F6F9" opacity="1.000000" stroke="none" 
	d="
M299.104340,314.936462 
	C258.257843,257.741516 217.551407,200.885040 177.060165,143.875748 
	C174.177719,139.817429 171.255844,138.508209 166.457245,138.556976 
	C142.805893,138.797409 119.150780,138.666290 95.309486,138.666290 
	C94.059731,312.124176 92.811684,485.344452 91.563637,658.564697 
	C90.931870,658.565796 90.300102,658.566833 89.668343,658.567871 
	C87.007133,482.535461 85.838188,306.490417 85.955521,129.885300 
	C87.872711,129.885300 89.478333,129.884995 91.083954,129.885345 
	C118.416359,129.891510 145.748978,129.950043 173.080872,129.835983 
	C176.395660,129.822159 178.409637,130.755569 180.382401,133.575150 
	C248.715027,231.239029 317.161041,328.823608 385.507294,426.477966 
	C386.831635,428.370209 387.870300,430.968719 387.845306,433.224426 
	C387.309143,481.551361 386.602295,529.876404 385.920624,578.201721 
	C385.911469,578.850952 385.800842,579.498657 385.248169,580.158813 
	C385.175903,578.802246 385.057434,577.446350 385.038116,576.088989 
	C384.373169,529.430115 383.766449,482.770203 382.942932,436.114105 
	C382.891876,433.221405 381.779541,429.905609 380.094391,427.549591 
	C353.264709,390.038727 326.260803,352.652496 299.104340,314.936462 
z"/>
<path fill="#55B9D2" opacity="1.000000" stroke="none" 
	d="
M1051.010010,483.085754 
	C1062.494873,482.829803 1073.485107,482.673401 1084.466919,482.282349 
	C1087.716919,482.166656 1088.857300,483.195190 1088.821899,486.503510 
	C1088.222168,542.619690 1087.704956,598.736694 1087.190186,654.853699 
	C1087.126953,661.746216 1087.181519,668.639771 1087.181519,675.532837 
	C1086.781006,675.540833 1086.380615,675.548767 1085.980103,675.556702 
	C1085.421631,662.278320 1084.510498,649.003662 1084.369019,635.720825 
	C1083.893677,591.089478 1083.681519,546.455261 1083.408325,501.821930 
	C1083.385864,498.163422 1083.568237,494.496246 1083.831909,490.845825 
	C1084.037476,487.999054 1082.860596,487.114655 1080.084229,487.070038 
	C1061.436646,486.770264 1042.791138,486.348419 1024.145752,485.923615 
	C1022.322571,485.882080 1020.506042,485.552795 1018.686401,485.357086 
	C1018.727234,484.603271 1018.768066,483.849487 1018.808899,483.095673 
	C1029.376587,483.095673 1039.944214,483.095673 1051.010010,483.085754 
z"/>
<path fill="#FEFEFE" opacity="1.000000" stroke="none" 
	d="
M1094.357178,802.193237 
	C1106.128662,799.226379 1117.550659,798.979431 1128.782593,802.460999 
	C1148.238647,808.491516 1160.343872,821.918945 1165.127686,841.420593 
	C1170.960571,865.199463 1166.226196,886.868896 1147.428711,903.302368 
	C1115.410156,931.294495 1063.631592,912.419739 1056.029663,870.528564 
	C1054.126343,860.039856 1054.303345,849.621948 1057.461304,839.405579 
	C1063.218018,820.781982 1075.092529,808.073181 1094.357178,802.193237 
z"/>
<path fill="#58BAD4" opacity="1.000000" stroke="none" 
	d="
M1565.646484,930.973694 
	C1565.373901,927.523438 1565.101318,924.073120 1564.807739,920.358459 
	C1553.940063,920.358459 1543.176758,920.289795 1532.414795,920.375977 
	C1518.927612,920.483948 1505.432007,921.116943 1491.957153,920.799072 
	C1474.822632,920.394897 1458.711060,904.598022 1458.280151,886.522034 
	C1457.574219,856.909851 1458.089111,827.268616 1458.089111,797.310669 
	C1493.662842,797.310669 1529.004761,797.310669 1564.797607,797.310669 
	C1565.217163,789.515076 1565.650269,781.468567 1566.083252,773.422058 
	C1566.303833,773.428589 1566.524292,773.435059 1566.744873,773.441589 
	C1566.744873,781.959106 1566.744873,790.476685 1566.744873,800.274536 
	C1532.072876,800.274536 1497.400879,800.274536 1462.233154,800.274536 
	C1462.233154,803.337219 1462.225708,805.128113 1462.234253,806.918945 
	C1462.354004,831.898560 1462.558716,856.878113 1462.560425,881.857727 
	C1462.561157,893.409790 1466.627563,902.937378 1475.567871,910.305542 
	C1481.041138,914.816223 1487.342651,916.932983 1494.445435,917.014832 
	C1517.091797,917.275879 1539.736816,917.634277 1562.382324,917.963989 
	C1563.694824,917.983093 1565.006348,918.081116 1566.843872,918.166931 
	C1566.843872,922.229126 1566.843872,926.154297 1566.583008,930.536194 
	C1566.096680,930.994202 1565.871460,930.987793 1565.646484,930.973694 
z"/>
<path fill="#55B9D2" opacity="1.000000" stroke="none" 
	d="
M1565.504150,931.424744 
	C1565.871460,930.987793 1566.096680,930.994202 1566.492920,930.993042 
	C1566.663696,937.632690 1566.663696,944.272278 1566.663696,950.911804 
	C1566.229736,950.913818 1565.795654,950.915833 1565.361694,950.917908 
	C1565.361694,944.570496 1565.361694,938.223145 1565.504150,931.424744 
z"/>
<path fill="#FEFEFE" opacity="1.000000" stroke="none" 
	d="
M324.008240,1145.735840 
	C319.293701,1145.207275 317.837616,1142.459351 317.844971,1138.448608 
	C317.870880,1124.330078 317.840057,1110.211426 317.855164,1096.092896 
	C317.859619,1091.932495 319.243561,1088.904297 324.090057,1088.909424 
	C328.991821,1088.914551 330.240479,1092.076904 330.248932,1096.168823 
	C330.278076,1110.287354 330.249420,1124.405762 330.254242,1138.524292 
	C330.255615,1142.529663 328.739960,1145.272217 324.008240,1145.735840 
z"/>
<path fill="#F6F9FC" opacity="1.000000" stroke="none" 
	d="
M917.318604,1094.014282 
	C917.600098,1096.716797 917.866699,1099.015869 917.873596,1101.315918 
	C917.901123,1110.410645 915.893921,1112.225952 906.319580,1111.641235 
	C906.319580,1104.637817 906.319580,1097.605347 906.319580,1090.158203 
	C910.241150,1090.361572 914.818359,1088.015869 917.318604,1094.014282 
z"/>
<path fill="#F6F9FC" opacity="1.000000" stroke="none" 
	d="
M822.124207,1145.765381 
	C817.659729,1145.123901 816.169556,1142.312622 816.149841,1138.648315 
	C816.072815,1124.323730 816.042725,1109.997803 816.175049,1095.674072 
	C816.210754,1091.813721 817.837280,1088.888184 822.415161,1088.855469 
	C827.264771,1088.820801 828.851318,1091.882935 828.881409,1095.967896 
	C828.985718,1110.125732 828.960083,1124.284912 828.892334,1138.443115 
	C828.872498,1142.594849 827.146057,1145.522217 822.124207,1145.765381 
z"/>
<path fill="#FEFEFE" opacity="1.000000" stroke="none" 
	d="
M731.959839,1089.975464 
	C740.360046,1090.015869 741.294739,1090.941162 741.367676,1098.844360 
	C741.380005,1100.176636 741.369995,1101.509277 741.368652,1102.841675 
	C741.358337,1113.021851 740.653503,1113.690186 729.904724,1113.099731 
	C729.904724,1105.728027 729.885864,1098.302856 729.972046,1090.878906 
	C729.975647,1090.573853 730.965698,1090.280151 731.959839,1089.975464 
z"/>
</svg>